<svg width="129" height="38" viewBox="0 0 129 38" fill="none" xmlns="http://www.w3.org/2000/svg">
<path d="M127.907 33.4585C127.907 33.936 127.813 34.4088 127.63 34.8498C127.447 35.2909 127.179 35.6917 126.841 36.0291C126.503 36.3665 126.102 36.6341 125.66 36.8165C125.219 36.9989 124.746 37.0925 124.268 37.092H5.19222C4.2271 37.093 3.3011 36.7108 2.61786 36.0294C1.93462 35.348 1.55009 34.4233 1.54883 33.4585V4.4827C1.55009 3.51752 1.93447 2.59228 2.61757 1.91014C3.30068 1.228 4.22667 0.844733 5.19222 0.844482H124.267C124.745 0.844482 125.218 0.938595 125.66 1.12144C126.101 1.30429 126.503 1.5723 126.84 1.91015C127.178 2.248 127.446 2.64908 127.629 3.09049C127.812 3.53189 127.906 4.00497 127.906 4.4827L127.907 33.4585Z" fill="white"/>
<path d="M124.268 37.9372H5.19226C4.00335 37.937 2.8631 37.4653 2.0217 36.6256C1.1803 35.786 0.706486 34.6469 0.704224 33.4585L0.704224 4.48352C0.705982 3.29446 1.17948 2.15465 2.02086 1.31413C2.86223 0.473605 4.00276 0.00100361 5.19226 0L124.267 0C125.457 0.00150439 126.597 0.474266 127.438 1.31468C128.279 2.1551 128.753 3.29462 128.755 4.48352V33.4585C128.757 35.9289 126.74 37.9372 124.268 37.9372Z" fill="#A6A6A6"/>
<path d="M127.907 33.4585C127.907 33.936 127.813 34.4088 127.63 34.8498C127.447 35.2909 127.179 35.6917 126.841 36.0291C126.503 36.3665 126.102 36.6341 125.66 36.8165C125.219 36.9989 124.746 37.0925 124.268 37.092H5.19222C4.2271 37.093 3.3011 36.7108 2.61786 36.0294C1.93462 35.348 1.55009 34.4233 1.54883 33.4585V4.4827C1.55009 3.51752 1.93447 2.59228 2.61757 1.91014C3.30068 1.228 4.22667 0.844733 5.19222 0.844482H124.267C124.745 0.844482 125.218 0.938595 125.66 1.12144C126.101 1.30429 126.503 1.5723 126.84 1.91015C127.178 2.248 127.446 2.64908 127.629 3.09049C127.812 3.53189 127.906 4.00497 127.906 4.4827L127.907 33.4585Z" fill="black"/>
<path d="M29.2971 18.7689C29.2696 15.7112 31.8017 14.2237 31.9174 14.1544C30.4834 12.0645 28.2608 11.7789 27.4797 11.7561C25.6129 11.5598 23.8021 12.8727 22.8512 12.8727C21.8813 12.8727 20.4169 11.7751 18.8386 11.8074C16.8077 11.8387 14.9077 13.0141 13.8656 14.8394C11.7151 18.5611 13.319 24.0303 15.3794 27.0386C16.41 28.5129 17.6144 30.157 19.1907 30.0991C20.7329 30.0365 21.309 29.1172 23.1701 29.1172C25.0141 29.1172 25.555 30.0991 27.1627 30.0621C28.8178 30.0365 29.8599 28.5822 30.8545 27.0956C32.0456 25.4078 32.5239 23.7438 32.5429 23.6585C32.5049 23.6452 29.3294 22.4327 29.2971 18.7689ZM26.2602 9.77716C27.0896 8.74024 27.6572 7.32953 27.4996 5.89795C26.2991 5.95108 24.7977 6.72806 23.9331 7.74221C23.1682 8.63588 22.4849 10.1007 22.6614 11.4782C24.01 11.5787 25.3946 10.798 26.2602 9.77716Z" fill="white"/>
<path d="M124.268 0H60.4875L85.4693 37.9372H124.268C125.457 37.9362 126.598 37.4639 127.439 36.6238C128.28 35.7837 128.754 34.6443 128.756 33.4556V4.48352C128.754 3.29454 128.281 2.15487 127.439 1.3144C126.598 0.473936 125.458 0.00125409 124.268 0Z" fill="url(#paint0_linear_52_618)"/>
<path d="M51.6348 29.8875H49.4795L48.2989 26.179H44.1953L43.0706 29.8875H40.9723L45.039 17.2622H47.5501L51.6348 29.8875ZM47.943 24.6232L46.8754 21.3264C46.7624 20.9897 46.5498 20.1965 46.2385 18.948H46.2006C46.0753 19.485 45.8751 20.2781 45.6008 21.3264L44.5511 24.6232H47.943ZM62.0724 25.2237C62.0724 26.772 61.652 27.9958 60.8102 28.8942C60.0567 29.694 59.12 30.0934 58.0029 30.0934C56.7967 30.0934 55.9293 29.6636 55.4025 28.8022V33.5789H53.3792V23.776C53.3792 22.8036 53.3535 21.8065 53.3042 20.7838H55.0837L55.1966 22.2268H55.2346C55.9093 21.1395 56.9333 20.5959 58.3076 20.5959C59.3819 20.5959 60.2787 21.02 60.9962 21.8691C61.7127 22.7201 62.0724 23.8376 62.0724 25.2237ZM60.0111 25.2977C60.0111 24.4116 59.8118 23.6811 59.4113 23.1053C58.9738 22.5066 58.3863 22.2068 57.6499 22.2068C57.1507 22.2068 56.697 22.3738 56.2918 22.703C55.8856 23.035 55.6199 23.4686 55.4955 24.0056C55.44 24.2064 55.4085 24.4131 55.4016 24.6213V26.1401C55.4016 26.8014 55.6047 27.3602 56.0109 27.8174C56.4171 28.2728 56.9447 28.5015 57.5939 28.5015C58.356 28.5015 58.9491 28.2064 59.3733 27.6211C59.7985 27.0338 60.0111 26.2597 60.0111 25.2977ZM72.5471 25.2237C72.5471 26.772 72.1266 27.9958 71.2848 28.8942C70.5303 29.694 69.5946 30.0934 68.4766 30.0934C67.2704 30.0934 66.4029 29.6636 65.8762 28.8022V33.5789H63.8528V23.776C63.8528 22.8036 63.8272 21.8065 63.7779 20.7838H65.5573L65.6703 22.2268H65.7082C66.3821 21.1395 67.4061 20.5959 68.7812 20.5959C69.8546 20.5959 70.7515 21.02 71.4708 21.8691C72.1864 22.7201 72.5471 23.8376 72.5471 25.2237ZM70.4848 25.2977C70.4848 24.4116 70.2845 23.6811 69.884 23.1053C69.4465 22.5066 68.861 22.2068 68.1245 22.2068C67.6253 22.2068 67.1717 22.3738 66.7645 22.703C66.3583 23.035 66.0935 23.4686 65.9692 24.0056C65.9075 24.256 65.8743 24.46 65.8743 24.6213V26.1401C65.8743 26.8014 66.0784 27.3602 66.4826 27.8174C66.8888 28.2719 67.4165 28.5015 68.0676 28.5015C68.8306 28.5015 69.4237 28.2064 69.847 27.6211C70.2722 27.0338 70.4848 26.2597 70.4848 25.2977ZM84.2583 26.346C84.2583 27.4209 83.8825 28.2946 83.1356 28.9692C82.3137 29.7054 81.1663 30.0744 79.6953 30.0744C78.3362 30.0744 77.2467 29.8126 76.4249 29.2879L76.8927 27.6021C77.7801 28.1277 78.7548 28.3895 79.8158 28.3895C80.5788 28.3895 81.172 28.2168 81.5953 27.8744C82.0195 27.5309 82.234 27.0718 82.234 26.4988C82.234 25.9855 82.0565 25.5557 81.7082 25.2057C81.358 24.8566 80.7791 24.5311 79.9657 24.2323C77.7545 23.4079 76.6479 22.2021 76.6479 20.6159C76.6479 19.5799 77.0389 18.7317 77.819 18.0686C78.5991 17.4064 79.6336 17.0753 80.9205 17.0753C82.0698 17.0753 83.0274 17.2755 83.7876 17.6749L83.2798 19.3237C82.5642 18.9367 81.7566 18.7431 80.8531 18.7431C80.1394 18.7431 79.5795 18.9186 79.179 19.2678C78.8421 19.5799 78.6713 19.9603 78.6713 20.4119C78.6713 20.91 78.8658 21.3236 79.253 21.6481C79.589 21.9469 80.2021 22.2723 81.0885 22.6214C82.1761 23.0597 82.9752 23.5701 83.4867 24.1564C84.002 24.7427 84.2583 25.4742 84.2583 26.346ZM90.9652 22.3017H88.7349V26.7217C88.7349 27.8459 89.1278 28.4066 89.9156 28.4066C90.2771 28.4066 90.577 28.3762 90.8143 28.3127L90.8703 29.8486C90.4717 29.9976 89.9469 30.0725 89.2968 30.0725C88.4977 30.0725 87.8732 29.8287 87.4224 29.3411C86.9735 28.8534 86.7476 28.0366 86.7476 26.8868V22.2979H85.419V20.78H86.7476V19.1131L88.7349 18.5135V20.78H90.9652V22.3017ZM101.008 25.2607C101.008 26.66 100.608 27.8089 99.8084 28.7073C98.9723 29.6323 97.86 30.0934 96.4735 30.0934C95.1353 30.0934 94.0714 29.6503 93.278 28.7652C92.4846 27.8782 92.0879 26.7606 92.0879 25.4125C92.0879 24.0018 92.4979 22.8463 93.315 21.9478C94.1341 21.0485 95.2369 20.5988 96.6234 20.5988C97.9597 20.5988 99.033 21.0428 99.8454 21.9289C100.622 22.7884 101.008 23.8984 101.008 25.2607ZM98.9106 25.3072C98.9106 24.4733 98.7303 23.758 98.3687 23.1593C97.9445 22.4364 97.3371 22.075 96.5503 22.075C95.7398 22.075 95.1182 22.4364 94.695 23.1593C94.3324 23.758 94.1521 24.4856 94.1521 25.3451C94.1521 26.18 94.3324 26.8972 94.695 27.4939C95.1325 28.2168 95.7427 28.5783 96.5332 28.5783C97.3067 28.5783 97.9132 28.2093 98.3516 27.4759C98.7236 26.8631 98.9106 26.143 98.9106 25.3072ZM107.588 22.5626C107.377 22.5246 107.164 22.5059 106.95 22.5066C106.238 22.5066 105.688 22.7742 105.301 23.313C104.965 23.7874 104.796 24.3869 104.796 25.1108V29.8875H102.772V23.6508C102.774 22.6951 102.754 21.7395 102.713 20.7847H104.476L104.55 22.5265H104.606C104.82 21.9279 105.156 21.445 105.618 21.0836C106.04 20.7677 106.553 20.5967 107.08 20.5959C107.267 20.5959 107.436 20.6092 107.586 20.6329L107.588 22.5626ZM116.637 24.9049C116.642 25.2124 116.617 25.5197 116.563 25.8223H110.493C110.516 26.7217 110.81 27.4105 111.373 27.8848C111.885 28.3079 112.547 28.5204 113.359 28.5204C114.258 28.5204 115.078 28.3781 115.815 28.0907L116.132 29.4938C115.27 29.8695 114.253 30.0564 113.079 30.0564C111.667 30.0564 110.558 29.6408 109.752 28.8117C108.947 27.9816 108.543 26.8659 108.543 25.4685C108.543 24.0966 108.918 22.9535 109.669 22.0418C110.455 21.0684 111.517 20.5817 112.853 20.5817C114.166 20.5817 115.159 21.0684 115.834 22.0418C116.368 22.8131 116.637 23.7693 116.637 24.9049ZM114.707 24.3803C114.722 23.7798 114.589 23.2627 114.315 22.8254C113.964 22.2619 113.425 21.981 112.703 21.981C112.042 21.981 111.503 22.2552 111.093 22.8055C110.756 23.2428 110.555 23.7684 110.494 24.3784L114.707 24.3803Z" fill="white"/>
<path d="M43.6116 12.7988C43.0488 12.7988 42.562 12.7712 42.1567 12.7248V6.62105C42.7235 6.53353 43.2963 6.49039 43.8698 6.49203C46.1902 6.49203 47.2588 7.63328 47.2588 9.49361C47.2588 11.6395 45.9966 12.7988 43.6116 12.7988ZM43.9514 7.27468C43.6382 7.27468 43.3715 7.29365 43.1504 7.33919V11.9791C43.27 11.9981 43.4996 12.0066 43.8223 12.0066C45.3427 12.0066 46.2082 11.1414 46.2082 9.52112C46.2082 8.0763 45.4253 7.27468 43.9514 7.27468ZM50.589 12.8452C49.2812 12.8452 48.4337 11.8691 48.4337 10.5438C48.4337 9.16252 49.2993 8.17781 50.663 8.17781C51.9518 8.17781 52.8183 9.1075 52.8183 10.4707C52.8183 11.8691 51.9253 12.8452 50.589 12.8452ZM50.627 8.90449C49.9085 8.90449 49.4483 9.57614 49.4483 10.5153C49.4483 11.4365 49.918 12.1081 50.6175 12.1081C51.3169 12.1081 51.7867 11.39 51.7867 10.4963C51.7867 9.58563 51.3264 8.90449 50.627 8.90449ZM60.2759 8.26983L58.8761 12.7437H57.964L57.3842 10.8009C57.24 10.3256 57.12 9.84341 57.0245 9.35605H57.0055C56.9324 9.84366 56.7939 10.3322 56.6468 10.8009L56.0299 12.7437H55.1084L53.7911 8.26983H54.8132L55.32 10.3967C55.4396 10.9033 55.5402 11.3814 55.6237 11.833H55.6427C55.7158 11.4564 55.8353 10.9859 56.0109 10.4062L56.6468 8.27078H57.4573L58.0656 10.3607C58.2127 10.8673 58.3323 11.3644 58.4253 11.834H58.4519C58.5164 11.3739 58.6179 10.8853 58.7555 10.3607L59.2994 8.27078L60.2759 8.26983ZM65.4292 12.7437H64.4346V10.1747C64.4346 9.38356 64.1309 8.98702 63.5321 8.98702C62.9427 8.98702 62.5375 9.49361 62.5375 10.0827V12.7437H61.5429V9.54863C61.5429 9.15304 61.5334 8.72898 61.5059 8.26888H62.3809L62.4274 8.95951H62.4549C62.7226 8.48138 63.2654 8.17781 63.8738 8.17781C64.8133 8.17781 65.4302 8.89595 65.4302 10.0647L65.4292 12.7437ZM68.172 12.7437H67.1764V6.21692H68.172V12.7437ZM71.7983 12.8452C70.4915 12.8452 69.643 11.8691 69.643 10.5438C69.643 9.16252 70.5085 8.17781 71.8714 8.17781C73.1611 8.17781 74.0266 9.1075 74.0266 10.4707C74.0276 11.8691 73.1336 12.8452 71.7983 12.8452ZM71.8353 8.90449C71.1169 8.90449 70.6566 9.57614 70.6566 10.5153C70.6566 11.4365 71.1273 12.1081 71.8249 12.1081C72.5253 12.1081 72.9941 11.39 72.9941 10.4963C72.995 9.58563 72.5357 8.90449 71.8353 8.90449ZM77.9481 12.7437L77.876 12.2286H77.8494C77.5457 12.6432 77.1025 12.8452 76.5407 12.8452C75.7387 12.8452 75.1693 12.2836 75.1693 11.5285C75.1693 10.4242 76.1269 9.85315 77.7849 9.85315V9.77062C77.7849 9.1815 77.4726 8.88646 76.8558 8.88646C76.4144 8.88646 76.0272 8.99745 75.6865 9.21849L75.4844 8.56486C75.8982 8.30683 76.4144 8.17781 77.0209 8.17781C78.1901 8.17781 78.7804 8.79444 78.7804 10.0287V11.6765C78.7804 12.128 78.8003 12.4781 78.845 12.7447L77.9481 12.7437ZM77.8114 10.5153C76.7068 10.5153 76.1525 10.7828 76.1525 11.4175C76.1525 11.8871 76.4382 12.1167 76.8349 12.1167C77.3407 12.1167 77.8114 11.7306 77.8114 11.2059V10.5153ZM83.6101 12.7437L83.5636 12.0256H83.5361C83.2504 12.5682 82.7702 12.8452 82.0992 12.8452C81.0202 12.8452 80.2211 11.8966 80.2211 10.5618C80.2211 9.16252 81.0496 8.17686 82.1808 8.17686C82.7797 8.17686 83.2039 8.37893 83.4431 8.78495H83.463V6.21692H84.4586V11.538C84.4586 11.9706 84.469 12.3756 84.4956 12.7437H83.6101ZM83.463 10.1112C83.463 9.48507 83.0483 8.95097 82.4153 8.95097C81.6779 8.95097 81.2271 9.6046 81.2271 10.5248C81.2271 11.427 81.6949 12.0446 82.3953 12.0446C83.0208 12.0446 83.463 11.501 83.463 10.8568V10.1112ZM90.7707 12.8452C89.4638 12.8452 88.6163 11.8691 88.6163 10.5438C88.6163 9.16252 89.4819 8.17781 90.8447 8.17781C92.1344 8.17781 93 9.1075 93 10.4707C93.0009 11.8691 92.1079 12.8452 90.7707 12.8452ZM90.8077 8.90449C90.0902 8.90449 89.6299 9.57614 89.6299 10.5153C89.6299 11.4365 90.0997 12.1081 90.7982 12.1081C91.4986 12.1081 91.9674 11.39 91.9674 10.4963C91.9693 9.58563 91.509 8.90449 90.8077 8.90449ZM98.3488 12.7437H97.3532V10.1747C97.3532 9.38356 97.0496 8.98702 96.4507 8.98702C95.8613 8.98702 95.4571 9.49361 95.4571 10.0827V12.7437H94.4615V9.54863C94.4615 9.15304 94.452 8.72898 94.4245 8.26888H95.2995L95.346 8.95951H95.3735C95.6402 8.48138 96.184 8.17686 96.7914 8.17686C97.731 8.17686 98.3488 8.895 98.3488 10.0638V12.7437ZM105.041 9.01548H103.946V11.1879C103.946 11.741 104.138 12.0171 104.525 12.0171C104.701 12.0171 104.848 11.9981 104.966 11.9706L104.994 12.7257C104.801 12.7997 104.543 12.8367 104.222 12.8367C103.439 12.8367 102.97 12.4041 102.97 11.2714V9.01548H102.317V8.26983H102.97V7.45018L103.946 7.15515V8.26888H105.041V9.01548ZM110.306 12.7437H109.312V10.1937C109.312 9.39305 109.009 8.98797 108.41 8.98797C107.894 8.98797 107.414 9.33803 107.414 10.0467V12.7437H106.42V6.21692H107.414V8.90449H107.434C107.747 8.41687 108.201 8.17686 108.78 8.17686C109.727 8.17686 110.306 8.91302 110.306 10.0827V12.7437ZM115.7 10.7458H112.715C112.734 11.593 113.295 12.0711 114.126 12.0711C114.567 12.0711 114.973 11.9971 115.332 11.8596L115.487 12.5502C115.063 12.7342 114.565 12.8263 113.985 12.8263C112.585 12.8263 111.757 11.9421 111.757 10.5713C111.757 9.19952 112.605 8.16832 113.873 8.16832C115.017 8.16832 115.734 9.01548 115.734 10.2952C115.741 10.4463 115.729 10.5975 115.7 10.7458ZM114.788 10.0372C114.788 9.34656 114.44 8.85895 113.804 8.85895C113.233 8.85895 112.781 9.35605 112.716 10.0372H114.788Z" fill="white"/>
<defs>
<linearGradient id="paint0_linear_52_618" x1="94.6209" y1="38.038" x2="94.6209" y2="-98.782" gradientUnits="userSpaceOnUse">
<stop stop-color="#1A1A1A" stop-opacity="0.1"/>
<stop offset="0.123" stop-color="#212121" stop-opacity="0.151"/>
<stop offset="0.308" stop-color="#353535" stop-opacity="0.227"/>
<stop offset="0.532" stop-color="#575757" stop-opacity="0.318"/>
<stop offset="0.783" stop-color="#858585" stop-opacity="0.421"/>
<stop offset="1" stop-color="#B3B3B3" stop-opacity="0.51"/>
</linearGradient>
</defs>
</svg>
