<svg width="33" height="34" viewBox="0 0 33 34" fill="none" xmlns="http://www.w3.org/2000/svg">
<g clip-path="url(#clip0_52_679)">
<path d="M27.8682 0.985352H5.30054C2.62972 0.985352 0.4646 3.15047 0.4646 5.82129V28.389C0.4646 31.0598 2.62972 33.2249 5.30054 33.2249H27.8682C30.5391 33.2249 32.7042 31.0598 32.7042 28.389V5.82129C32.7042 3.15047 30.5391 0.985352 27.8682 0.985352Z" fill="#1877F2"/>
<path d="M22.856 21.7647L23.5739 17.1051H19.1031V14.0826C19.1031 12.8107 19.7265 11.5639 21.7289 11.5639H23.7628V7.59694C23.7628 7.59694 21.9178 7.2821 20.1547 7.2821C16.4711 7.2821 14.0657 9.51117 14.0657 13.5537V17.1051H9.97278V21.7647H14.0657V33.2249H19.1031V21.7647H22.856Z" fill="white"/>
</g>
<defs>
<clipPath id="clip0_52_679">
<rect width="32.2396" height="32.2396" fill="white" transform="translate(0.4646 0.985352)"/>
</clipPath>
</defs>
</svg>
