<svg width="130" height="40" viewBox="0 0 130 40" fill="none" xmlns="http://www.w3.org/2000/svg">
<mask id="mask0_52_629" style="mask-type:luminance" maskUnits="userSpaceOnUse" x="0" y="0" width="130" height="40">
<path d="M129.578 0.848999H0.619873V39.0594H129.578V0.848999Z" fill="white"/>
</mask>
<g mask="url(#mask0_52_629)">
<mask id="mask1_52_629" style="mask-type:luminance" maskUnits="userSpaceOnUse" x="0" y="0" width="130" height="40">
<path d="M129.578 0.848999H0.619873V39.0594H129.578V0.848999Z" fill="white"/>
</mask>
<g mask="url(#mask1_52_629)">
<path d="M124.801 39.0574H5.39692C2.76984 39.0574 0.619873 36.9094 0.619873 34.2823V5.62405C0.619873 2.99697 2.76984 0.848999 5.39692 0.848999H124.803C127.43 0.848999 129.58 2.99897 129.58 5.62605V34.2843C129.578 36.9094 127.428 39.0574 124.801 39.0574Z" fill="#12100B"/>
</g>
<mask id="mask2_52_629" style="mask-type:luminance" maskUnits="userSpaceOnUse" x="0" y="0" width="130" height="40">
<path d="M129.578 0.848999H0.619873V39.0594H129.578V0.848999Z" fill="white"/>
</mask>
<g mask="url(#mask2_52_629)">
<path d="M124.801 1.61157C127.013 1.61157 128.814 3.4122 128.814 5.62405V34.2823C128.814 36.4942 127.013 38.2948 124.801 38.2948H5.39692C3.18507 38.2948 1.38444 36.4942 1.38444 34.2823V5.62405C1.38444 3.4122 3.18507 1.61157 5.39692 1.61157H124.801ZM124.801 0.848999H5.39692C2.76984 0.848999 0.619873 2.99697 0.619873 5.62405V34.2823C0.619873 36.9094 2.76984 39.0594 5.39692 39.0594H124.803C127.43 39.0594 129.58 36.9094 129.58 34.2823V5.62405C129.578 2.99697 127.428 0.848999 124.801 0.848999Z" fill="#AFACAB"/>
</g>
<mask id="mask3_52_629" style="mask-type:luminance" maskUnits="userSpaceOnUse" x="0" y="0" width="130" height="40">
<path d="M129.578 0.848999H0.619873V39.0594H129.578V0.848999Z" fill="white"/>
</mask>
<g mask="url(#mask3_52_629)">
<path d="M65.706 21.626C63.4602 21.626 61.6276 23.3348 61.6276 25.6904C61.6276 28.028 63.4582 29.7528 65.706 29.7528C67.9518 29.7528 69.7843 28.028 69.7843 25.6904C69.7843 23.3348 67.9537 21.626 65.706 21.626ZM65.706 28.1518C64.4743 28.1518 63.4123 27.1357 63.4123 25.6904C63.4123 24.2272 64.4743 23.227 65.706 23.227C66.9377 23.227 67.9977 24.2272 67.9977 25.6904C67.9997 27.1357 66.9377 28.1518 65.706 28.1518ZM56.8086 21.626C54.5628 21.626 52.7303 23.3348 52.7303 25.6904C52.7303 28.028 54.5608 29.7528 56.8086 29.7528C59.0544 29.7528 60.887 28.028 60.887 25.6904C60.889 23.3348 59.0564 21.626 56.8086 21.626ZM56.8086 28.1518C55.5789 28.1518 54.5169 27.1357 54.5169 25.6904C54.5169 24.2272 55.5789 23.227 56.8086 23.227C58.0403 23.227 59.1023 24.2272 59.1023 25.6904C59.1023 27.1357 58.0403 28.1518 56.8086 28.1518ZM46.2265 22.8737V24.5965H50.3507C50.227 25.5666 49.9056 26.2733 49.4125 26.7664C48.8116 27.3673 47.8734 28.028 46.2265 28.028C43.6872 28.028 41.7009 25.9819 41.7009 23.4426C41.7009 20.9034 43.6852 18.8572 46.2265 18.8572C47.5959 18.8572 48.596 19.3942 49.3346 20.0869L50.5504 18.8712C49.5183 17.887 48.1489 17.1324 46.2265 17.1324C42.749 17.1324 39.8245 19.9651 39.8245 23.4426C39.8245 26.9221 42.749 29.7528 46.2265 29.7528C48.103 29.7528 49.5183 29.136 50.6282 27.9821C51.7661 26.8442 52.1214 25.2432 52.1214 23.9497C52.1214 23.5484 52.0915 23.1811 52.0296 22.8737H46.2265ZM89.5074 24.2112C89.168 23.3029 88.1379 21.626 86.0299 21.626C83.9378 21.626 82.1991 23.2729 82.1991 25.6904C82.1991 27.9681 83.9218 29.7528 86.2295 29.7528C88.092 29.7528 89.168 28.6149 89.6152 27.9522L88.2297 27.0279C87.7666 27.7046 87.1378 28.1518 86.2295 28.1518C85.3212 28.1518 84.6744 27.7366 84.2592 26.9221L89.691 24.6743L89.5074 24.2112ZM83.9677 25.5666C83.9218 23.9956 85.1835 23.1971 86.0918 23.1971C86.8004 23.1971 87.4013 23.5504 87.6009 24.0595L83.9677 25.5666ZM79.55 29.5053H81.3347V17.5636H79.55V29.5053ZM76.6255 22.5343H76.5636C76.1624 22.0572 75.3938 21.626 74.4256 21.626C72.3934 21.626 70.5329 23.4107 70.5329 25.7044C70.5329 27.9821 72.3954 29.7508 74.4256 29.7508C75.3958 29.7508 76.1644 29.3196 76.5636 28.8265H76.6255V29.4114C76.6255 30.9665 75.7951 31.797 74.4556 31.797C73.3636 31.797 72.6849 31.0124 72.4094 30.3517L70.8543 30.9985C71.2995 32.0764 72.4853 33.4 74.4556 33.4C76.5476 33.4 78.3183 32.1683 78.3183 29.1679V21.8736H76.6255V22.5343ZM74.5793 28.1518C73.3476 28.1518 72.3176 27.1217 72.3176 25.7064C72.3176 24.2751 73.3476 23.229 74.5793 23.229C75.7951 23.229 76.7493 24.2751 76.7493 25.7064C76.7493 27.1197 75.7951 28.1518 74.5793 28.1518ZM97.8697 17.5636H93.5997V29.5053H95.3803V24.9817H97.8697C99.846 24.9817 101.786 23.5504 101.786 21.2727C101.786 18.995 99.846 17.5636 97.8697 17.5636ZM97.9156 23.3189H95.3803V19.2245H97.9156C99.2491 19.2245 100.006 20.3285 100.006 21.2707C100.006 22.199 99.2491 23.3189 97.9156 23.3189ZM108.931 21.6041C107.641 21.6041 106.304 22.173 105.751 23.4306L107.334 24.0914C107.671 23.4306 108.302 23.215 108.963 23.215C109.885 23.215 110.821 23.768 110.837 24.7502V24.8739C110.514 24.6903 109.823 24.4128 108.979 24.4128C107.274 24.4128 105.537 25.349 105.537 27.1018C105.537 28.7008 106.937 29.7288 108.502 29.7288C109.702 29.7288 110.36 29.1918 110.775 28.561H110.837V29.4833H112.558V24.9039C112.556 22.7878 110.975 21.6041 108.931 21.6041ZM108.717 28.1498C108.132 28.1498 107.318 27.8583 107.318 27.1357C107.318 26.2134 108.332 25.8621 109.208 25.8621C109.991 25.8621 110.36 26.0318 110.837 26.2613C110.698 27.3653 109.745 28.1498 108.717 28.1498ZM118.824 21.8656L116.78 27.0439H116.718L114.598 21.8656H112.678L115.858 29.102L114.045 33.1265H115.904L120.805 21.8656H118.824ZM102.771 29.5053H104.553V17.5636H102.771V29.5053Z" fill="white"/>
</g>
<mask id="mask4_52_629" style="mask-type:luminance" maskUnits="userSpaceOnUse" x="0" y="0" width="130" height="40">
<path d="M129.578 0.848999H0.619873V39.0594H129.578V0.848999Z" fill="white"/>
</mask>
<g mask="url(#mask4_52_629)">
<path d="M20.4108 19.4022L10.2399 30.196C10.2399 30.198 10.2399 30.2 10.2419 30.202C10.5533 31.3738 11.6233 32.2362 12.8949 32.2362C13.4039 32.2362 13.879 32.0984 14.2883 31.8589L14.3202 31.8389L25.7688 25.2333L20.4108 19.4022Z" fill="#E43629"/>
</g>
<mask id="mask5_52_629" style="mask-type:luminance" maskUnits="userSpaceOnUse" x="0" y="0" width="130" height="40">
<path d="M129.578 0.848999H0.619873V39.0594H129.578V0.848999Z" fill="white"/>
</mask>
<g mask="url(#mask5_52_629)">
<path d="M30.6995 17.5657L30.6895 17.5597L25.7468 14.6951L20.1792 19.6498L25.7667 25.2353L30.6815 22.3986C31.5439 21.9315 32.1288 21.0232 32.1288 19.9772C32.1288 18.9351 31.5519 18.0328 30.6995 17.5657Z" fill="#F9BD00"/>
</g>
<mask id="mask6_52_629" style="mask-type:luminance" maskUnits="userSpaceOnUse" x="0" y="0" width="130" height="40">
<path d="M129.578 0.848999H0.619873V39.0594H129.578V0.848999Z" fill="white"/>
</mask>
<g mask="url(#mask6_52_629)">
<path d="M10.2398 9.71045C10.1779 9.93603 10.146 10.1736 10.146 10.4171V29.4914C10.146 29.7349 10.1779 29.9725 10.2398 30.1981L20.7581 19.6798L10.2398 9.71045Z" fill="#587DBE"/>
</g>
<mask id="mask7_52_629" style="mask-type:luminance" maskUnits="userSpaceOnUse" x="0" y="0" width="130" height="40">
<path d="M129.578 0.848999H0.619873V39.0594H129.578V0.848999Z" fill="white"/>
</mask>
<g mask="url(#mask7_52_629)">
<path d="M20.4847 19.9532L25.7488 14.6911L14.3142 8.06148C13.899 7.81194 13.4139 7.66821 12.8949 7.66821C11.6253 7.66821 10.5533 8.53259 10.2399 9.70639V9.70839L20.4847 19.9532Z" fill="#30A043"/>
</g>
</g>
<mask id="mask8_52_629" style="mask-type:luminance" maskUnits="userSpaceOnUse" x="0" y="0" width="130" height="40">
<path d="M129.578 0.848999H0.619873V39.0594H129.578V0.848999Z" fill="white"/>
</mask>
<g mask="url(#mask8_52_629)">
<path d="M41.7468 13.112C41.2757 12.8346 40.9064 12.4593 40.6369 11.9862C40.3674 11.513 40.2336 10.99 40.2336 10.4191C40.2336 9.84816 40.3674 9.32713 40.6369 8.85203C40.9064 8.37891 41.2757 8.00362 41.7468 7.72614C42.2179 7.44866 42.7409 7.31091 43.3179 7.31091C43.8948 7.31091 44.4158 7.44866 44.8849 7.72614C45.3521 8.00362 45.7214 8.37891 45.9909 8.85203C46.2603 9.32514 46.3941 9.84816 46.3941 10.4191C46.3941 10.99 46.2603 11.511 45.9909 11.9862C45.7214 12.4593 45.354 12.8346 44.8849 13.112C44.4158 13.3895 43.8948 13.5273 43.3179 13.5273C42.7409 13.5273 42.2179 13.3895 41.7468 13.112ZM44.4118 12.3754C44.7412 12.1838 45.0027 11.9183 45.1923 11.5769C45.384 11.2356 45.4798 10.8503 45.4798 10.4171C45.4798 9.9859 45.384 9.59863 45.1923 9.25727C45.0007 8.91591 44.7412 8.6504 44.4118 8.45876C44.0824 8.26712 43.7171 8.1713 43.3199 8.1713C42.9206 8.1713 42.5573 8.26712 42.2279 8.45876C41.8985 8.6504 41.637 8.91591 41.4474 9.25727C41.2557 9.59863 41.1599 9.9839 41.1599 10.4171C41.1599 10.8503 41.2557 11.2356 41.4474 11.5769C41.639 11.9183 41.8985 12.1838 42.2279 12.3754C42.5573 12.5671 42.9226 12.6629 43.3199 12.6629C43.7171 12.6629 44.0804 12.5671 44.4118 12.3754Z" fill="white"/>
<path d="M47.5819 7.4447H49.8097C50.1251 7.4447 50.4186 7.51457 50.6901 7.65231C50.9616 7.79006 51.1772 7.9797 51.3349 8.22125C51.4926 8.46279 51.5724 8.73029 51.5724 9.02374C51.5724 9.31719 51.4986 9.57271 51.3528 9.7923C51.2051 10.0119 51.0115 10.1796 50.7659 10.2954V10.3373C51.0754 10.4431 51.3229 10.6168 51.5066 10.8603C51.6902 11.1038 51.78 11.3913 51.78 11.7247C51.78 12.0521 51.6962 12.3415 51.5265 12.5931C51.3568 12.8446 51.1313 13.0422 50.8458 13.1839C50.5603 13.3257 50.2489 13.3956 49.9115 13.3956H47.5839V7.4447H47.5819ZM49.7678 9.94602C50.0453 9.94602 50.2669 9.86217 50.4326 9.69249C50.5983 9.52281 50.6821 9.32917 50.6821 9.10759C50.6821 8.886 50.6003 8.69436 50.4366 8.53067C50.2729 8.36697 50.0613 8.28513 49.7998 8.28513H48.4942V9.94801H49.7678V9.94602ZM49.9075 12.5471C50.195 12.5471 50.4266 12.4593 50.6023 12.2856C50.7759 12.112 50.8638 11.9023 50.8638 11.6588C50.8638 11.4153 50.7739 11.2037 50.5943 11.028C50.4146 10.8503 50.1751 10.7625 49.8756 10.7625H48.4962V12.5491H49.9075V12.5471Z" fill="white"/>
<path d="M54.0637 8.30701H52.3928V7.44263H56.6389V8.30701H54.976V13.3935H54.0617V8.30701H54.0637Z" fill="white"/>
<path d="M57.5872 7.4447H61.1944V8.30908H58.5014V9.98794H60.9289V10.8523H58.5014V12.5312H61.1944V13.3956H57.5872V7.4447Z" fill="white"/>
<path d="M62.474 7.4447H64.5601C64.9194 7.4447 65.2448 7.52256 65.5363 7.67826C65.8277 7.83397 66.0573 8.04957 66.227 8.32705C66.3966 8.60453 66.4805 8.91794 66.4805 9.26529C66.4805 9.66454 66.3507 10.0179 66.0932 10.3253C65.8357 10.6327 65.5123 10.8403 65.125 10.9441L65.117 10.9861L66.754 13.3456V13.3956H65.698L64.1109 11.0599H63.3883V13.3956H62.474V7.4447ZM64.5341 10.2195C64.8216 10.2195 65.0651 10.1277 65.2608 9.94602C65.4564 9.76236 65.5562 9.53279 65.5562 9.25531C65.5562 8.99979 65.4664 8.7782 65.2867 8.58656C65.1071 8.39492 64.8675 8.2991 64.5681 8.2991H63.3883V10.2195H64.5341Z" fill="white"/>
<path d="M69.4789 7.4447H70.5589L73.2518 11.8165H73.3017L73.2518 10.6687V7.4447H74.1581V13.3955H73.2099L70.3852 8.80016H70.3353L70.3852 9.94801V13.3975H69.4789V7.4447Z" fill="white"/>
<path d="M76.8669 13.112C76.3958 12.8346 76.0265 12.4593 75.757 11.9862C75.4875 11.513 75.3538 10.99 75.3538 10.4191C75.3538 9.84816 75.4875 9.32713 75.757 8.85203C76.0265 8.37891 76.3958 8.00362 76.8669 7.72614C77.338 7.44866 77.8611 7.31091 78.438 7.31091C79.0149 7.31091 79.5359 7.44866 80.005 7.72614C80.4722 8.00362 80.8415 8.37891 81.111 8.85203C81.3805 9.32514 81.5142 9.84816 81.5142 10.4191C81.5142 10.99 81.3805 11.511 81.111 11.9862C80.8415 12.4593 80.4742 12.8346 80.005 13.112C79.5359 13.3895 79.0149 13.5273 78.438 13.5273C77.8611 13.5273 77.338 13.3895 76.8669 13.112ZM79.5319 12.3754C79.8613 12.1838 80.1228 11.9183 80.3125 11.5769C80.5041 11.2356 80.5999 10.8503 80.5999 10.4171C80.5999 9.9859 80.5041 9.59863 80.3125 9.25727C80.1208 8.91591 79.8613 8.6504 79.5319 8.45876C79.2025 8.26712 78.8372 8.1713 78.44 8.1713C78.0407 8.1713 77.6774 8.26712 77.348 8.45876C77.0186 8.6504 76.7571 8.91591 76.5675 9.25727C76.3758 9.59863 76.28 9.9839 76.28 10.4171C76.28 10.8503 76.3758 11.2356 76.5675 11.5769C76.7591 11.9183 77.0186 12.1838 77.348 12.3754C77.6774 12.5671 78.0427 12.6629 78.44 12.6629C78.8372 12.6629 79.2005 12.5671 79.5319 12.3754Z" fill="white"/>
</g>
</svg>
