<svg width="34" height="34" viewBox="0 0 34 34" fill="none" xmlns="http://www.w3.org/2000/svg">
<path d="M26.5977 0H7.25391C3.24768 0 0 3.24768 0 7.25391V26.5977C0 30.6039 3.24768 33.8516 7.25391 33.8516H26.5977C30.6039 33.8516 33.8516 30.6039 33.8516 26.5977V7.25391C33.8516 3.24768 30.6039 0 26.5977 0Z" fill="url(#paint0_radial_7_9)"/>
<path d="M26.5977 0H7.25391C3.24768 0 0 3.24768 0 7.25391V26.5977C0 30.6039 3.24768 33.8516 7.25391 33.8516H26.5977C30.6039 33.8516 33.8516 30.6039 33.8516 26.5977V7.25391C33.8516 3.24768 30.6039 0 26.5977 0Z" fill="url(#paint1_radial_7_9)"/>
<path d="M26.5977 0H7.25391C3.24768 0 0 3.24768 0 7.25391V26.5977C0 30.6039 3.24768 33.8516 7.25391 33.8516H26.5977C30.6039 33.8516 33.8516 30.6039 33.8516 26.5977V7.25391C33.8516 3.24768 30.6039 0 26.5977 0Z" fill="url(#paint2_radial_7_9)"/>
<path d="M25.3887 10.2764C25.3887 11.2779 24.5767 12.0898 23.5752 12.0898C22.5737 12.0898 21.7617 11.2779 21.7617 10.2764C21.7617 9.27481 22.5737 8.46289 23.5752 8.46289C24.5767 8.46289 25.3887 9.27481 25.3887 10.2764Z" fill="white"/>
<path fill-rule="evenodd" clip-rule="evenodd" d="M16.9258 22.9707C20.2643 22.9707 22.9707 20.2643 22.9707 16.9258C22.9707 13.5873 20.2643 10.8809 16.9258 10.8809C13.5873 10.8809 10.8809 13.5873 10.8809 16.9258C10.8809 20.2643 13.5873 22.9707 16.9258 22.9707ZM16.9258 20.5527C18.9289 20.5527 20.5527 18.9289 20.5527 16.9258C20.5527 14.9226 18.9289 13.2988 16.9258 13.2988C14.9226 13.2988 13.2988 14.9226 13.2988 16.9258C13.2988 18.9289 14.9226 20.5527 16.9258 20.5527Z" fill="white"/>
<path fill-rule="evenodd" clip-rule="evenodd" d="M4.83594 16.4422C4.83594 12.3796 4.83594 10.3483 5.62657 8.79664C6.32202 7.43172 7.43172 6.32202 8.79664 5.62657C10.3483 4.83594 12.3796 4.83594 16.4422 4.83594H17.4094C21.4719 4.83594 23.5033 4.83594 25.0549 5.62657C26.4198 6.32202 27.5295 7.43172 28.225 8.79664C29.0156 10.3483 29.0156 12.3796 29.0156 16.4422V17.4094C29.0156 21.4719 29.0156 23.5033 28.225 25.0549C27.5295 26.4198 26.4198 27.5295 25.0549 28.225C23.5033 29.0156 21.4719 29.0156 17.4094 29.0156H16.4422C12.3796 29.0156 10.3483 29.0156 8.79664 28.225C7.43172 27.5295 6.32202 26.4198 5.62657 25.0549C4.83594 23.5033 4.83594 21.4719 4.83594 17.4094V16.4422ZM16.4422 7.25391H17.4094C19.4806 7.25391 20.8885 7.25579 21.9768 7.3447C23.037 7.43131 23.5791 7.5883 23.9572 7.78099C24.8671 8.24463 25.6069 8.98443 26.0705 9.89433C26.2633 10.2725 26.4203 10.8146 26.5069 11.8748C26.5957 12.9631 26.5977 14.371 26.5977 16.4422V17.4094C26.5977 19.4806 26.5957 20.8885 26.5069 21.9768C26.4203 23.037 26.2633 23.5791 26.0705 23.9572C25.6069 24.8671 24.8671 25.6069 23.9572 26.0705C23.5791 26.2633 23.037 26.4203 21.9768 26.5069C20.8885 26.5957 19.4806 26.5977 17.4094 26.5977H16.4422C14.371 26.5977 12.9631 26.5957 11.8748 26.5069C10.8146 26.4203 10.2725 26.2633 9.89433 26.0705C8.98443 25.6069 8.24463 24.8671 7.78099 23.9572C7.5883 23.5791 7.43131 23.037 7.3447 21.9768C7.25579 20.8885 7.25391 19.4806 7.25391 17.4094V16.4422C7.25391 14.371 7.25579 12.9631 7.3447 11.8748C7.43131 10.8146 7.5883 10.2725 7.78099 9.89433C8.24463 8.98443 8.98443 8.24463 9.89433 7.78099C10.2725 7.5883 10.8146 7.43131 11.8748 7.3447C12.9631 7.25579 14.371 7.25391 16.4422 7.25391Z" fill="white"/>
<defs>
<radialGradient id="paint0_radial_7_9" cx="0" cy="0" r="1" gradientUnits="userSpaceOnUse" gradientTransform="translate(12.0898 25.3887) rotate(-55.3758) scale(30.8528)">
<stop stop-color="#B13589"/>
<stop offset="0.79309" stop-color="#C62F94"/>
<stop offset="1" stop-color="#8A3AC8"/>
</radialGradient>
<radialGradient id="paint1_radial_7_9" cx="0" cy="0" r="1" gradientUnits="userSpaceOnUse" gradientTransform="translate(10.8809 35.0605) rotate(-65.1363) scale(27.316)">
<stop stop-color="#E0E8B7"/>
<stop offset="0.444662" stop-color="#FB8A2E"/>
<stop offset="0.71474" stop-color="#E2425C"/>
<stop offset="1" stop-color="#E2425C" stop-opacity="0"/>
</radialGradient>
<radialGradient id="paint2_radial_7_9" cx="0" cy="0" r="1" gradientUnits="userSpaceOnUse" gradientTransform="translate(-1.81348 1.20898) rotate(-8.1301) scale(47.0185 10.0568)">
<stop offset="0.156701" stop-color="#406ADC"/>
<stop offset="0.467799" stop-color="#6A45BE"/>
<stop offset="1" stop-color="#6A45BE" stop-opacity="0"/>
</radialGradient>
</defs>
</svg>
