<svg width="133" height="54" viewBox="0 0 133 54" fill="none" xmlns="http://www.w3.org/2000/svg">
<path d="M7.53976 42.441V31.0122C7.53976 30.9051 7.62536 30.8286 7.72651 30.8286H11.3602C12.4496 30.8286 13.43 31.0658 14.2936 31.5324C15.1573 31.999 15.8265 32.6646 16.3089 33.529C16.7913 34.3934 17.0325 35.3726 17.0325 36.4665V37.0097C17.0325 38.1036 16.7913 39.0828 16.3167 39.9395C15.8421 40.7963 15.1729 41.4542 14.3092 41.9285C13.4455 42.3951 12.4651 42.6399 11.3836 42.6399H7.72651C7.62536 42.6246 7.53976 42.5481 7.53976 42.441ZM10.0997 32.9859V40.4903C10.0997 40.5974 10.1853 40.6739 10.2864 40.6739H11.3369C12.3406 40.6739 13.1032 40.3603 13.6323 39.7406C14.1614 39.121 14.4337 38.2336 14.4415 37.0709V36.4436C14.4415 35.2426 14.1769 34.3322 13.6556 33.7126C13.1343 33.093 12.364 32.787 11.3602 32.787H10.2864C10.1853 32.7946 10.0997 32.8788 10.0997 32.9859Z" fill="#9D9D9C"/>
<path d="M22.6037 42.793C21.2498 42.793 20.1449 42.3952 19.2968 41.6073C18.4487 40.8193 18.0207 39.7636 18.0207 38.4555V38.226C18.0207 37.3463 18.1997 36.5584 18.5576 35.8622C18.9155 35.1661 19.4213 34.6306 20.0827 34.2558C20.7363 33.8809 21.491 33.6897 22.3314 33.6897C23.5919 33.6897 24.5879 34.0645 25.3115 34.8219C26.0351 35.5792 26.4008 36.6502 26.4008 38.0424V38.8151C26.4008 38.9222 26.3152 38.9987 26.2141 38.9987H20.7518C20.6273 38.9987 20.5418 39.1058 20.5651 39.2205C20.674 39.6871 20.8997 40.0773 21.242 40.3756C21.6466 40.7199 22.1524 40.8958 22.7671 40.8958C23.6386 40.8958 24.3389 40.6204 24.8602 40.0696C24.938 39.9931 25.0625 39.9931 25.1403 40.0696L26.0974 41.0871C26.1596 41.1559 26.1674 41.263 26.1051 41.3319C25.7472 41.7679 25.2804 42.1121 24.7046 42.3646C24.0743 42.6476 23.374 42.793 22.6037 42.793ZM22.3236 35.5869C21.8334 35.5869 21.4366 35.7475 21.1331 36.0611C20.8686 36.3365 20.6896 36.7114 20.5884 37.1857C20.5651 37.3004 20.6585 37.4075 20.7752 37.4075H23.7864C23.8953 37.4075 23.9732 37.3234 23.9732 37.2239C23.9654 36.7037 23.8175 36.2983 23.5296 36.0152C23.2495 35.7245 22.8449 35.5869 22.3236 35.5869Z" fill="#9D9D9C"/>
<path d="M29.8322 42.6247H27.7391C27.6302 42.6247 27.5524 42.5406 27.5524 42.4411V30.3621C27.5524 30.255 27.638 30.1785 27.7391 30.1785H29.8322C29.9412 30.1785 30.019 30.2626 30.019 30.3621V42.4411C30.0267 42.5482 29.9412 42.6247 29.8322 42.6247Z" fill="#9D9D9C"/>
<path d="M31.653 31.5861C31.653 31.2342 31.7775 30.9435 32.0264 30.7217C32.2754 30.4922 32.61 30.3774 33.038 30.3774C33.4581 30.3774 33.7927 30.4922 34.0417 30.7217C34.2907 30.9512 34.4152 31.2342 34.4152 31.5861C34.4152 31.9457 34.2907 32.2363 34.0339 32.4582C33.7772 32.6877 33.4426 32.8024 33.0302 32.8024C32.6178 32.8024 32.2832 32.6877 32.0264 32.4582C31.7775 32.2363 31.653 31.9457 31.653 31.5861ZM34.0806 42.6248H31.9875C31.8786 42.6248 31.8008 42.5406 31.8008 42.4412V34.0417C31.8008 33.9346 31.8864 33.8581 31.9875 33.8581H34.0806C34.1895 33.8581 34.2674 33.9423 34.2674 34.0417V42.4412C34.2751 42.5483 34.1895 42.6248 34.0806 42.6248Z" fill="#9D9D9C"/>
<path d="M39.5584 39.1364L41.0524 33.9957C41.0757 33.9115 41.1535 33.858 41.2391 33.858H43.4022C43.5345 33.858 43.6279 33.988 43.5812 34.1104L40.6011 42.5099C40.5777 42.5864 40.4999 42.6323 40.4221 42.6323H38.3368C38.259 42.6323 38.1812 42.5788 38.1579 42.5099L35.17 34.1028C35.1233 33.9804 35.2166 33.8503 35.3489 33.8503H37.512C37.5976 33.8503 37.6754 33.9039 37.6988 33.988L39.1927 39.1287C39.2472 39.32 39.5117 39.32 39.5584 39.1364Z" fill="#9D9D9C"/>
<path d="M48.2031 42.793C46.8492 42.793 45.7443 42.3952 44.8962 41.6073C44.048 40.8193 43.6201 39.7636 43.6201 38.4555V38.226C43.6201 37.3463 43.7991 36.5584 44.157 35.8622C44.5149 35.1661 45.0207 34.6306 45.682 34.2558C46.3356 33.8809 47.0904 33.6897 47.9307 33.6897C49.1913 33.6897 50.1872 34.0645 50.9108 34.8219C51.6345 35.5792 52.0002 36.6502 52.0002 38.0424V38.8151C52.0002 38.9222 51.9146 38.9987 51.8134 38.9987H46.3512C46.2267 38.9987 46.1411 39.1058 46.1645 39.2205C46.2734 39.6871 46.499 40.0773 46.8414 40.3756C47.246 40.7199 47.7518 40.8958 48.3665 40.8958C49.2379 40.8958 49.9382 40.6204 50.4596 40.0696C50.5374 39.9931 50.6619 39.9931 50.7397 40.0696L51.6967 41.0871C51.759 41.1559 51.7668 41.263 51.7045 41.3319C51.3466 41.7679 50.8797 42.1121 50.3039 42.3646C49.6737 42.6476 48.9734 42.793 48.2031 42.793ZM47.923 35.5869C47.4328 35.5869 47.0359 35.7475 46.7325 36.0611C46.4679 36.3365 46.289 36.7114 46.1878 37.1857C46.1645 37.3004 46.2578 37.4075 46.3745 37.4075H49.3858C49.4947 37.4075 49.5725 37.3234 49.5725 37.2239C49.5647 36.7037 49.4169 36.2983 49.129 36.0152C48.8489 35.7245 48.4443 35.5869 47.923 35.5869Z" fill="#9D9D9C"/>
<path d="M58.2094 35.8469C58.2094 35.954 58.1083 36.0458 57.9993 36.0305C57.7503 35.9999 57.5247 35.9922 57.3224 35.9922C56.412 35.9922 55.8051 36.2753 55.5094 36.849C55.4938 36.8719 55.4861 36.9025 55.4861 36.9331V42.441C55.4861 42.5481 55.4005 42.6246 55.2993 42.6246H53.214C53.1051 42.6246 53.0273 42.5404 53.0273 42.441V34.0415C53.0273 33.9344 53.1129 33.8579 53.214 33.8579H55.167C55.2682 33.8579 55.3538 33.9344 55.3538 34.0339L55.3771 34.3857C55.3849 34.554 55.6028 34.6229 55.7117 34.4928C56.1708 33.965 56.7544 33.6973 57.4702 33.6973C57.6881 33.6973 57.8904 33.7202 58.0849 33.7661C58.1705 33.7891 58.2327 33.8656 58.2327 33.9497L58.2094 35.8469Z" fill="#9D9D9C"/>
<path d="M63.5316 38.7308L65.0177 33.988C65.0411 33.9115 65.1189 33.8579 65.1967 33.8579H67.4298C67.5621 33.8579 67.6555 33.988 67.6088 34.1104L63.9906 43.9863C63.9906 43.9939 63.9906 43.9939 63.9829 43.9939L63.7806 44.4529C63.2281 45.6004 62.3177 46.1741 61.0494 46.1741C60.7382 46.1741 60.4192 46.1359 60.1002 46.0594C60.0146 46.0364 59.9601 45.9599 59.9601 45.8758V44.4376C59.9601 44.3305 60.0457 44.2464 60.1546 44.254L60.3336 44.2616C60.8004 44.2616 61.1506 44.1928 61.3762 44.0628C61.6097 43.9251 61.7886 43.7032 61.9209 43.3896L62.1855 42.7317C62.201 42.6858 62.201 42.6399 62.1855 42.6016L59.0653 34.1257C59.0186 34.0033 59.112 33.8732 59.2443 33.8732H61.4852C61.5708 33.8732 61.6408 33.9268 61.6641 34.0033L63.1581 38.7461C63.2203 38.9068 63.4771 38.9068 63.5316 38.7308Z" fill="#9D9D9C"/>
<g opacity="0.1">
<path d="M47.9152 11.0694C47.2927 10.5109 46.5224 10.1055 45.6198 9.84538C44.7094 9.58529 43.7524 9.45524 42.7486 9.45524C41.3403 9.45524 40.1031 9.62354 39.0293 9.95248C37.9556 10.2891 36.9596 10.7098 36.0337 11.23C35.4034 10.6333 34.602 10.1896 33.6293 9.89128C32.6489 9.59294 31.6218 9.43994 30.5325 9.43994C29.0697 9.43994 27.6302 9.63119 26.1907 10.0137C24.759 10.3962 23.5141 10.9011 22.4637 11.5207C21.849 11.8802 21.3354 12.2704 20.9308 12.6835C20.5262 13.0965 20.2383 13.655 20.0749 14.3511L17.2815 26.063C17.1259 26.7132 17.087 27.2334 17.1648 27.6312C17.2426 28.029 17.4138 28.3503 17.6784 28.5798C17.9429 28.8093 18.2931 28.9699 18.7444 29.0464C19.1879 29.1229 19.7014 29.1611 20.2928 29.1611C20.8997 29.1611 21.4988 29.1229 22.0902 29.0464C22.6815 28.9699 23.1173 28.8934 23.3974 28.8169L26.642 15.2079C26.9144 15.0779 27.2334 14.9402 27.6147 14.8025C27.9959 14.6648 28.4239 14.5883 28.8985 14.5883C29.591 14.5883 30.1357 14.7642 30.5481 15.1161C30.9527 15.468 31.0694 16.0264 30.8827 16.8067L28.6729 26.0706C28.5172 26.7209 28.4783 27.241 28.5561 27.6388C28.634 28.0366 28.8051 28.3579 29.0697 28.5874C29.3342 28.8169 29.6844 28.9776 30.1357 29.0541C30.5792 29.1305 31.0927 29.1688 31.6841 29.1688C32.2677 29.1688 32.8512 29.1305 33.4426 29.0541C34.0339 28.9776 34.4775 28.9011 34.7887 28.8246L37.8622 15.9117C37.8777 15.8352 37.9011 15.751 37.9244 15.6592C37.9478 15.5674 37.9556 15.4756 37.9556 15.3685C38.2123 15.1849 38.5702 15.0167 39.0371 14.8484C39.504 14.6801 39.9164 14.5959 40.2898 14.5959C41.0602 14.5959 41.6282 14.7719 41.9939 15.1237C42.3596 15.4756 42.4529 16.0341 42.2662 16.8144L40.0564 26.0859C39.9008 26.7362 39.8619 27.2563 39.9397 27.6541C40.0175 28.0519 40.1887 28.3732 40.4532 28.6027C40.7178 28.8322 41.0679 28.9929 41.5192 29.0693C41.9627 29.1458 42.4763 29.1841 43.0676 29.1841C43.6746 29.1841 44.2737 29.1458 44.865 29.0693C45.4564 28.9929 45.8921 28.9164 46.1722 28.8399L49.0823 16.6231C49.3936 15.3073 49.4403 14.1828 49.2068 13.2648C48.9656 12.3622 48.5377 11.6278 47.9152 11.0694Z" fill="black"/>
<path d="M71.1024 10.572C70.8379 10.3425 70.4877 10.1819 70.0365 10.1054C69.5929 10.0289 69.0716 9.99064 68.488 9.99064C67.8811 9.99064 67.2742 10.0289 66.6906 10.1054C66.0993 10.1819 65.6636 10.2584 65.3834 10.3349L62.1466 23.9056C61.9054 24.0127 61.5863 24.1122 61.1739 24.2116C60.7615 24.3111 60.2558 24.3646 59.6411 24.3646C58.6296 24.3646 57.9137 24.1351 57.4935 23.6838C57.0734 23.2325 56.9878 22.4751 57.2368 21.4118L59.2209 13.0735C59.3765 12.4309 59.4154 11.9031 59.3376 11.5053C59.2598 11.1075 59.0886 10.7862 58.8241 10.5567C58.5595 10.3272 58.2094 10.1666 57.7581 10.0901C57.3146 10.0136 56.7933 9.97534 56.2097 9.97534C55.6028 9.97534 54.9959 10.0136 54.4123 10.0901C53.8209 10.1666 53.3852 10.2431 53.1051 10.3196L50.4596 21.4118C50.1172 22.8576 50.0627 24.0969 50.2962 25.1143C50.5296 26.1394 51.012 26.9732 51.7279 27.6158C52.4515 28.266 53.3774 28.7403 54.5134 29.054C55.6495 29.3676 56.9333 29.5206 58.365 29.5283C59.8745 29.5283 61.314 29.3829 62.6679 29.0846C64.0218 28.7862 65.2356 28.3578 66.3016 27.7917C67.5699 27.1492 68.3558 26.1776 68.667 24.8848L71.4759 13.0965C71.6316 12.4539 71.6705 11.926 71.5926 11.5283C71.5382 11.1228 71.367 10.8092 71.1024 10.572Z" fill="black"/>
<path d="M101.573 11.1382C100.95 10.5798 100.18 10.1743 99.2773 9.91423C98.367 9.65414 97.4099 9.52409 96.4062 9.52409C94.9978 9.52409 93.7606 9.69238 92.6869 10.0213C91.6131 10.3579 90.6171 10.7787 89.6912 11.2988C89.0609 10.7022 88.2595 10.2585 87.2869 9.96013C86.3065 9.66178 85.2794 9.50879 84.19 9.50879C82.7272 9.50879 81.2877 9.70003 79.8483 10.0825C78.4166 10.465 77.1716 10.9699 76.1212 11.5895C75.5065 11.9491 74.9929 12.3392 74.5883 12.7523C74.1837 13.1654 73.8958 13.7238 73.7324 14.42L70.9391 26.1318C70.7834 26.7821 70.7445 27.3022 70.8224 27.7C70.9002 28.0978 71.0713 28.4191 71.3359 28.6486C71.6004 28.8781 71.9506 29.0387 72.4019 29.1152C72.8454 29.1917 73.3589 29.23 73.9503 29.23C74.5572 29.23 75.1563 29.1917 75.7477 29.1152C76.3391 29.0387 76.7748 28.9623 77.0549 28.8858L80.2996 15.2767C80.5719 15.1467 80.8909 15.009 81.2722 14.8713C81.6535 14.7336 82.0814 14.6571 82.556 14.6571C83.2485 14.6571 83.7932 14.8331 84.2056 15.1849C84.6102 15.5368 84.7269 16.0953 84.5402 16.8756L82.3226 26.1471C82.167 26.7974 82.1281 27.3175 82.2059 27.7153C82.2837 28.1131 82.4549 28.4344 82.7194 28.6639C82.984 28.8934 83.3341 29.054 83.7854 29.1305C84.229 29.207 84.7425 29.2453 85.3338 29.2453C85.9174 29.2453 86.501 29.207 87.0923 29.1305C87.6837 29.054 88.1272 28.9776 88.4384 28.9011L91.5119 15.9882C91.5275 15.9117 91.5508 15.8275 91.5742 15.7357C91.5975 15.6439 91.6053 15.5521 91.6053 15.445C91.8621 15.2614 92.22 15.0931 92.6869 14.9249C93.1537 14.7566 93.5661 14.6724 93.9396 14.6724C94.7099 14.6724 95.2779 14.8484 95.6436 15.2002C96.0093 15.5521 96.1027 16.1106 95.916 16.8909L93.7062 26.1624C93.5505 26.8127 93.5116 27.3328 93.5895 27.7306C93.6673 28.1284 93.8384 28.4497 94.103 28.6792C94.3675 28.9087 94.7177 29.0693 95.169 29.1458C95.6125 29.2223 96.126 29.2606 96.7174 29.2606C97.3243 29.2606 97.9234 29.2223 98.5148 29.1458C99.1061 29.0693 99.5419 28.9929 99.822 28.9164L102.732 16.6996C103.043 15.3838 103.09 14.2593 102.857 13.3413C102.623 12.4387 102.195 11.6966 101.573 11.1382Z" fill="black"/>
<path d="M124.76 10.6487C124.495 10.4192 124.145 10.2585 123.694 10.182C123.25 10.1056 122.729 10.0673 122.146 10.0673C121.539 10.0673 120.932 10.1056 120.348 10.182C119.757 10.2585 119.321 10.335 119.041 10.4115L115.804 23.9823C115.563 24.0894 115.244 24.1888 114.831 24.2883C114.419 24.3877 113.913 24.4413 113.299 24.4413C112.287 24.4413 111.571 24.2118 111.151 23.7605C110.731 23.3091 110.645 22.5518 110.894 21.4885L112.878 13.1502C113.034 12.5076 113.073 11.9798 112.995 11.582C112.917 11.1842 112.746 10.8629 112.482 10.6334C112.217 10.4039 111.867 10.2432 111.416 10.1667C110.972 10.0903 110.451 10.052 109.867 10.052C109.26 10.052 108.653 10.0903 108.07 10.1667C107.478 10.2432 107.043 10.3197 106.763 10.3962L104.117 21.4885C103.775 22.9343 103.72 24.1735 103.954 25.191C104.187 26.216 104.67 27.0499 105.385 27.6925C106.109 28.3427 107.035 28.817 108.171 29.1306C109.307 29.4443 110.591 29.5973 112.023 29.6049C113.532 29.6049 114.972 29.4596 116.325 29.1612C117.679 28.8629 118.893 28.4345 119.959 27.8684C121.227 27.2258 122.013 26.2543 122.325 24.9615L125.133 13.1731C125.289 12.5305 125.328 12.0027 125.25 11.6049C125.196 11.1995 125.025 10.8782 124.76 10.6487Z" fill="black"/>
</g>
<path d="M71.4137 8.96558C71.1491 8.73609 70.799 8.57544 70.3477 8.49894C69.9042 8.42244 69.3829 8.3842 68.7993 8.3842C68.1924 8.3842 67.5855 8.42244 67.0019 8.49894C66.4105 8.57544 65.9748 8.65194 65.6947 8.72844L62.4578 22.2992C62.2166 22.4063 61.8976 22.5057 61.4852 22.6052C61.0728 22.7046 60.567 22.7582 59.9523 22.7582C58.9408 22.7582 58.225 22.5287 57.8048 22.0774C57.3846 21.626 57.299 20.8687 57.548 19.8054L59.5322 11.4671C59.6878 10.8245 59.7267 10.2966 59.6489 9.89886C59.5711 9.50107 59.3999 9.17978 59.1353 8.95028C58.8708 8.72079 58.5206 8.56014 58.0693 8.48364C57.6258 8.40715 57.1045 8.3689 56.5209 8.3689C55.914 8.3689 55.3071 8.40715 54.7235 8.48364C54.1322 8.56014 53.6964 8.63664 53.4163 8.71314L50.7708 19.8054C50.4284 21.2512 50.374 22.4904 50.6074 23.5079C50.8408 24.5329 51.3233 25.3668 52.0391 26.0094C52.7627 26.6596 53.6887 27.1339 54.8247 27.4475C55.9607 27.7612 57.2446 27.9142 58.6763 27.9218C60.1858 27.9218 61.6252 27.7765 62.9791 27.4781C64.333 27.1798 65.5468 26.7514 66.6128 26.1853C67.8811 25.5427 68.667 24.5712 68.9783 23.2784L71.7872 11.49C71.9428 10.8474 71.9817 10.3196 71.9039 9.92181C71.8416 9.51637 71.6705 9.20273 71.4137 8.96558Z" fill="url(#paint0_linear_65_2)" stroke="white" stroke-miterlimit="10"/>
<path d="M101.565 9.53175C100.942 8.97332 100.172 8.56788 99.2695 8.30778C98.3592 8.04769 97.4021 7.91764 96.3983 7.91764C94.99 7.91764 93.7528 8.08594 92.679 8.41488C91.6053 8.75147 90.6093 9.17221 89.6834 9.6924C89.0531 9.09571 88.2517 8.65202 87.2791 8.35368C86.2987 8.05534 85.2716 7.90234 84.1822 7.90234C82.7194 7.90234 81.2799 8.09359 79.8405 8.47608C78.4088 8.85857 77.1638 9.36346 76.1134 9.98309C75.4987 10.3426 74.9851 10.7328 74.5805 11.1459C74.1759 11.559 73.888 12.1174 73.7246 12.8135L70.9313 24.5254C70.7756 25.1756 70.7367 25.6958 70.8145 26.0936C70.8923 26.4914 71.0635 26.8127 71.3281 27.0422C71.5926 27.2717 71.9428 27.4323 72.3941 27.5088C72.8376 27.5853 73.3511 27.6235 73.9425 27.6235C74.5494 27.6235 75.1485 27.5853 75.7399 27.5088C76.3312 27.4323 76.767 27.3558 77.0471 27.2793L80.2918 13.6703C80.5641 13.5403 80.8831 13.4026 81.2644 13.2649C81.6456 13.1272 82.0736 13.0507 82.5482 13.0507C83.2407 13.0507 83.7854 13.2266 84.1978 13.5785C84.6024 13.9304 84.7191 14.4888 84.5324 15.2691L82.3226 24.533C82.167 25.1833 82.1281 25.7034 82.2059 26.1012C82.2837 26.499 82.4549 26.8203 82.7194 27.0498C82.984 27.2793 83.3341 27.44 83.7854 27.5165C84.2289 27.593 84.7425 27.6312 85.3338 27.6312C85.9174 27.6312 86.501 27.593 87.0923 27.5165C87.6837 27.44 88.1272 27.3635 88.4384 27.287L91.5119 14.3741C91.5275 14.2976 91.5508 14.2134 91.5742 14.1216C91.5975 14.0298 91.6053 13.938 91.6053 13.8309C91.8621 13.6473 92.22 13.4791 92.6868 13.3108C93.1537 13.1425 93.5661 13.0583 93.9396 13.0583C94.7099 13.0583 95.2779 13.2343 95.6436 13.5862C96.0093 13.938 96.1027 14.4965 95.9159 15.2768L93.7061 24.5407C93.5505 25.1909 93.5116 25.7111 93.5894 26.1089C93.6672 26.5067 93.8384 26.828 94.103 27.0575C94.3675 27.287 94.7177 27.4476 95.169 27.5241C95.6125 27.6006 96.126 27.6388 96.7174 27.6388C97.3243 27.6388 97.9234 27.6006 98.5148 27.5241C99.1061 27.4476 99.5419 27.3711 99.822 27.2946L102.732 15.0779C103.043 13.7621 103.09 12.6376 102.857 11.7196C102.623 10.8246 102.195 10.0902 101.565 9.53175Z" fill="url(#paint1_linear_65_2)" stroke="white" stroke-miterlimit="10"/>
<path d="M124.916 9.03443C124.651 8.80493 124.301 8.64429 123.85 8.56779C123.406 8.49129 122.885 8.45304 122.301 8.45304C121.694 8.45304 121.087 8.49129 120.504 8.56779C119.912 8.64429 119.477 8.72079 119.197 8.79728L115.96 22.368C115.718 22.4751 115.399 22.5746 114.987 22.674C114.575 22.7735 114.069 22.827 113.454 22.827C112.443 22.827 111.727 22.5975 111.307 22.1462C110.887 21.6949 110.801 20.9375 111.05 19.8742L113.034 11.5359C113.19 10.8933 113.229 10.3655 113.151 9.96771C113.073 9.56992 112.902 9.24862 112.637 9.01913C112.373 8.78964 112.023 8.62899 111.571 8.55249C111.128 8.47599 110.606 8.43774 110.023 8.43774C109.416 8.43774 108.809 8.47599 108.225 8.55249C107.634 8.62899 107.198 8.70549 106.918 8.78199L104.273 19.8742C103.93 21.32 103.876 22.5593 104.109 23.5767C104.343 24.6018 104.825 25.4356 105.541 26.0782C106.265 26.7284 107.191 27.2027 108.327 27.5164C109.463 27.83 110.746 27.983 112.178 27.9907C113.688 27.9907 115.127 27.8453 116.481 27.547C117.835 27.2486 119.049 26.8202 120.115 26.2541C121.383 25.6116 122.169 24.64 122.48 23.3472L125.289 11.5589C125.445 10.9163 125.484 10.3884 125.406 9.99066C125.344 9.58522 125.18 9.27157 124.916 9.03443Z" fill="url(#paint2_linear_65_2)" stroke="white" stroke-miterlimit="10"/>
<path d="M49.8137 11.6737C49.5803 10.7557 49.1523 10.0213 48.5299 9.4629C47.9074 8.90447 47.1371 8.49903 46.2345 8.23894C45.3241 7.97884 44.367 7.8488 43.3633 7.8488C41.9549 7.8488 40.7178 8.01709 39.644 8.34603C38.5702 8.68262 37.5743 9.10336 36.6483 9.62355C36.0181 9.02687 35.2166 8.58318 34.244 8.28483C33.2636 7.98649 32.2365 7.8335 31.1472 7.8335C29.6844 7.8335 28.2449 8.02474 26.8054 8.40723C25.3737 8.78972 24.1288 9.29461 23.0783 9.91424C22.4636 10.2738 21.9501 10.6639 21.5455 11.077C21.5221 11.1 21.5066 11.1229 21.491 11.1382L15.8498 11.1306C15.1884 11.1306 14.5193 11.6584 14.3637 12.301C14.208 12.9436 14.6204 13.4714 15.2896 13.4714L20.5184 13.4791L20.2927 14.4276L11.2824 14.4123C10.621 14.4123 9.95185 14.9402 9.79623 15.5828C9.64061 16.2253 10.053 16.7532 10.7222 16.7532L19.7247 16.7685L18.7132 21.0065L10.1619 20.9912C9.50055 20.9912 8.83139 21.519 8.67577 22.1616C8.52015 22.8042 8.93254 23.332 9.6017 23.332L18.153 23.3473L17.9273 24.2959H15.5853C14.9239 24.2959 14.2547 24.8237 14.0991 25.4663C13.9435 26.1089 14.3559 26.6367 15.025 26.6367L18.0051 26.6444C18.083 26.7668 18.1763 26.8815 18.2775 26.9733C18.542 27.2028 18.8922 27.3635 19.3435 27.44C19.787 27.5165 20.3005 27.5547 20.8919 27.5547C21.4988 27.5547 22.0979 27.5165 22.6893 27.44C23.2806 27.3635 23.7164 27.287 23.9965 27.2105L27.2411 13.6015C27.5135 13.4714 27.8325 13.3337 28.2138 13.196C28.595 13.0583 29.023 12.9818 29.4976 12.9818C30.1901 12.9818 30.7348 13.1578 31.1472 13.5097C31.5518 13.8615 31.6685 14.42 31.4818 15.2003L29.272 24.4642C29.1164 25.1144 29.0775 25.6346 29.1553 26.0324C29.2331 26.4302 29.4043 26.7515 29.6688 26.981C29.9334 27.2105 30.2835 27.3711 30.7348 27.4476C31.1783 27.5241 31.6919 27.5624 32.2832 27.5624C32.8668 27.5624 33.4504 27.5241 34.0417 27.4476C34.6331 27.3711 35.0766 27.2946 35.3878 27.2181L38.4613 14.3052C38.4769 14.2287 38.5002 14.1446 38.5235 14.0528C38.5469 13.961 38.5547 13.8692 38.5547 13.7621C38.8114 13.5785 39.1694 13.4102 39.6362 13.2419C40.1031 13.0736 40.5155 12.9895 40.889 12.9895C41.6593 12.9895 42.2273 13.1654 42.593 13.5173C42.9587 13.8692 43.0521 14.4276 42.8653 15.2079L40.6711 24.4795C40.5155 25.1297 40.4766 25.6499 40.5544 26.0477C40.6322 26.4455 40.8034 26.7668 41.0679 26.9963C41.3325 27.2258 41.6826 27.3864 42.1339 27.4629C42.5774 27.5394 43.091 27.5777 43.6823 27.5777C44.2892 27.5777 44.8884 27.5394 45.4797 27.4629C46.0711 27.3864 46.5068 27.3099 46.7869 27.2334L49.697 15.0167C50.0005 13.7085 50.0472 12.5917 49.8137 11.6737Z" fill="url(#paint3_linear_65_2)" stroke="white" stroke-miterlimit="10"/>
<path d="M12.4651 20.0502C13.1265 20.0502 13.7956 19.5223 13.9513 18.8797C14.1069 18.2371 13.6945 17.7093 13.0253 17.7093L9.50834 17.7017C8.84696 17.7017 8.17779 18.2295 8.02217 18.8721C7.86656 19.5147 8.27895 20.0425 8.94811 20.0425L12.4651 20.0502Z" fill="#FED600" stroke="white" stroke-miterlimit="10"/>
<path d="M12.574 24.2882L9.05704 24.2805C8.39566 24.2805 7.7265 24.8084 7.57088 25.4509C7.41526 26.0935 7.82765 26.6214 8.49681 26.6214L12.0138 26.629C12.6752 26.629 13.3444 26.1012 13.5 25.4586C13.6478 24.816 13.2354 24.2882 12.574 24.2882Z" fill="#FED600" stroke="white" stroke-miterlimit="10"/>
<defs>
<linearGradient id="paint0_linear_65_2" x1="51.1888" y1="18.1314" x2="69.1995" y2="22.4237" gradientUnits="userSpaceOnUse">
<stop stop-color="#FED600"/>
<stop offset="1" stop-color="#FEA000"/>
</linearGradient>
<linearGradient id="paint1_linear_65_2" x1="72.552" y1="17.753" x2="100.51" y2="24.4158" gradientUnits="userSpaceOnUse">
<stop stop-color="#FED600"/>
<stop offset="1" stop-color="#FEA000"/>
</linearGradient>
<linearGradient id="paint2_linear_65_2" x1="104.692" y1="18.2034" x2="122.702" y2="22.4956" gradientUnits="userSpaceOnUse">
<stop stop-color="#FED600"/>
<stop offset="1" stop-color="#FEA000"/>
</linearGradient>
<linearGradient id="paint3_linear_65_2" x1="9.30279" y1="17.6677" x2="46.9233" y2="26.6333" gradientUnits="userSpaceOnUse">
<stop stop-color="#FED600"/>
<stop offset="1" stop-color="#FEA000"/>
</linearGradient>
</defs>
</svg>
